<svg width="75" height="76" viewBox="0 0 75 76" fill="none" xmlns="http://www.w3.org/2000/svg">
<path d="M8.51314 14.8264L8.52225 14.8136C11.6714 10.774 15.6309 7.44897 20.1447 5.05647C24.6567 2.66397 29.6211 1.25781 34.7127 0.930004L34.7254 0.928908C43.9874 0.169578 53.1713 3.11616 60.289 9.12933L60.2999 9.13903L60.3126 9.14818C64.4921 12.4193 67.901 16.5821 70.2924 21.3374C72.6837 26.0927 73.9994 31.3223 74.1429 36.6502L74.1447 36.6751C74.4173 41.3556 73.7704 46.0444 72.2422 50.4732C70.714 54.9023 68.3335 58.9846 65.2371 62.4869L65.2316 62.4933C58.1739 70.6469 49.7132 74.8797 38.4106 75.1716C27.9202 75.4533 18.9381 72.2124 11.4987 64.9277C4.05387 57.6379 0.383263 48.6553 0.187012 38.1123C0.230623 29.6198 3.17074 21.3996 8.51314 14.8264ZM9.61253 46.451L13.6048 49.2502C13.5957 49.2751 13.5866 49.3001 13.5775 49.3252L13.5593 49.3753L13.5503 49.4273C13.4521 49.8946 13.354 50.3638 13.2541 50.8345C12.9215 52.411 12.5872 54.003 12.291 55.593C12.162 56.0962 12.2092 56.6289 12.4218 57.103C12.6344 57.5785 13.0033 57.9657 13.4667 58.2008C15.7236 59.5199 17.9369 60.9077 20.1083 62.3648L20.112 62.3668C22.318 63.8329 28.1965 67.7748 28.907 68.3084C29.2686 68.5799 29.5757 68.8188 29.7919 68.9896C29.8664 69.0472 29.9282 69.097 29.9791 69.1376C30.119 69.4632 30.3425 69.9573 30.5406 70.3907C30.6641 70.6614 30.7822 70.9151 30.8677 71.101L30.9712 71.323L30.9985 71.3841L31.0058 71.4002L31.0076 71.4044L31.0094 71.4054L31.2129 71.8431L31.6908 71.8634L33.2481 71.9296L33.2626 71.9302L35.7721 71.9852C39.4845 72.0626 43.1933 71.6395 46.7949 70.7269C46.7967 70.7265 46.7967 70.7262 46.7985 70.7258L47.1093 70.6504L47.1311 70.6449C47.9724 70.4144 48.801 70.1318 49.6078 69.7987C50.8108 69.3187 51.9792 68.7586 53.1077 68.1222L53.1095 68.1209C54.5632 67.2939 55.9697 66.382 57.318 65.39L57.3253 65.3841C58.5046 64.4957 59.6258 63.5351 60.687 62.508L60.6924 62.5029C61.8045 61.4062 62.8366 60.2291 63.7779 58.9806C64.7446 57.7532 65.6205 56.4535 66.3928 55.0927L66.4037 55.0733C67.2359 53.5049 67.981 51.8902 68.6333 50.2367L68.637 50.2266C69.7908 47.1787 70.5432 43.9921 70.8757 40.7477V40.7446C71.0865 38.608 71.0265 36.453 70.6958 34.3318L70.694 34.3223C69.7418 28.676 67.5939 23.302 64.3994 18.5643L64.3921 18.5539C60.9704 13.6531 56.404 9.67555 51.0943 6.97208L51.087 6.96879C45.8591 4.36885 39.9897 3.36805 34.2039 4.09025C31.391 4.43141 28.6289 5.11336 25.9777 6.12147L25.9759 6.12202C23.1775 7.19232 20.519 8.6036 18.0622 10.3244C16.5049 11.3854 15.0476 12.585 13.7047 13.909L13.6956 13.9169C12.5272 15.1026 11.4787 16.427 10.4648 17.7099C10.1268 18.1372 9.79243 18.5598 9.45989 18.9712L9.44897 18.9843C9.11098 19.4188 8.81117 19.8815 8.55314 20.3675L7.59005 22.1761L9.51259 21.493C9.82514 21.3818 10.2921 21.1669 10.7119 20.9741L10.7446 20.9591C11.2043 20.7474 11.6078 20.5627 11.8458 20.4782C12.0584 20.4026 12.2946 20.3082 12.5236 20.2171C12.6126 20.1816 12.6999 20.1467 12.7853 20.1134C12.9125 20.0635 13.0378 20.0155 13.1596 19.9713L10.9954 27.9888C10.9718 27.976 10.9499 27.9628 10.9263 27.9496C10.8845 27.926 10.8427 27.9019 10.7991 27.877C10.3012 27.5911 9.68703 27.2404 9.08193 26.9155C8.48409 26.594 7.86987 26.2834 7.37561 26.0862C7.13575 25.9903 6.87771 25.9019 6.6433 25.8654C6.53064 25.8476 6.36346 25.8319 6.18538 25.8685C5.99458 25.9074 5.70931 26.0278 5.54577 26.3437C5.44401 26.5418 5.34586 26.8087 5.37857 27.1105C5.41673 27.4546 5.60755 27.6906 5.79108 27.8315C5.94554 27.9485 6.1127 28.0138 6.1872 28.0427L6.19083 28.0442C6.21446 28.0534 6.23083 28.0596 6.24537 28.0647C6.26354 28.0718 6.27624 28.0768 6.29441 28.0843C6.30531 28.0887 6.31258 28.0916 6.31622 28.0934L8.17154 29.1848L8.16972 29.1851L8.18971 29.1961L9.88874 30.1309C9.33087 30.7268 8.49497 31.6054 7.60457 32.5433C7.37198 32.7882 7.13575 33.0374 6.8977 33.2865C6.06363 34.1655 5.24049 35.034 4.61721 35.7013C4.30647 36.0344 4.04299 36.3207 3.85037 36.5342C3.75588 36.6403 3.67409 36.733 3.61231 36.8068C3.58142 36.8432 3.55054 36.8809 3.52329 36.9163L3.52147 36.9187C3.50693 36.9379 3.44697 37.0159 3.40335 37.1115C3.30341 37.327 3.23071 37.582 3.2616 37.8531C3.29612 38.1553 3.45423 38.4061 3.68138 38.5588L3.74132 38.5983L3.80494 38.6267C3.98666 38.7055 4.18109 38.7463 4.37734 38.7463C4.56996 38.7463 4.76076 38.7076 4.93702 38.6322C5.18052 38.5329 5.34225 38.3605 5.41311 38.2828C5.44764 38.2451 5.48215 38.204 5.50577 38.1762C5.5094 38.1707 5.51487 38.1655 5.51851 38.1613C5.54577 38.128 5.55849 38.114 5.56757 38.1065L5.57847 38.0953C6.53611 37.0918 8.02796 35.491 9.29451 34.1132C9.89054 33.4645 10.4393 32.8636 10.8609 32.3962L10.89 32.4665C11.2153 33.2254 11.6659 34.2767 12.1656 35.4462C12.9543 37.2965 13.8665 39.44 14.5988 41.1893L12.9452 40.9488L12.9397 40.9482C12.5036 40.8877 12.0675 40.8268 11.6314 40.7659C9.59798 40.4827 7.55369 40.1979 5.51122 39.9429L5.48033 39.939L5.44764 39.9376C5.1678 39.9253 4.88794 39.9729 4.62809 40.0771C4.36824 40.1812 4.13203 40.34 3.93759 40.5425L3.92306 40.5562L3.91034 40.5705C3.64503 40.8752 3.55961 41.2442 3.61412 41.5929C3.66319 41.9007 3.81219 42.1534 3.93939 42.3279C4.19016 42.6718 4.5427 42.9606 4.7117 43.0982L4.71715 43.1035L4.74441 43.1251L4.77164 43.1443L9.61253 46.451ZM6.39072 27.436C6.39072 27.4358 6.39255 27.436 6.39619 27.4365L6.39072 27.436Z" fill="#003170"/>
<path d="M28.4658 52.4254C27.9424 54.2567 27.5681 56.1288 27.3519 58.0224C27.2447 58.9036 27.2356 60.1967 27.2483 61.4031C27.2501 61.5363 27.2519 61.6682 27.2538 61.7986C25.3766 58.8558 23.4995 55.9182 21.6224 52.9857L21.6206 52.9846C21.3171 52.5099 20.9228 52.0993 20.4631 51.7755C19.46 51.0443 18.4243 50.3152 17.3503 49.6501L17.3121 49.627L17.2722 49.6082C17.234 49.5897 17.2031 49.5566 17.1886 49.5158C17.1741 49.4752 17.1759 49.4302 17.194 49.3908L17.2213 49.3321L17.2376 49.2699C17.3612 48.8161 17.4757 48.3709 17.5902 47.9313C17.8191 47.0435 18.0408 46.1794 18.3207 45.3169C18.3552 45.2139 18.3861 45.1098 18.4097 45.005C21.6915 47.426 24.9605 49.8403 28.215 52.2483L28.2296 52.2579L28.4658 52.4254ZM27.0829 36.9134L17.9227 42.0436C17.1559 40.211 16.0929 37.6835 15.1679 35.4934C14.6682 34.3113 14.2085 33.2267 13.856 32.4023C14.1812 32.4999 14.5483 32.6102 14.9481 32.7308C16.5453 33.213 18.6605 33.8571 20.7829 34.5043C22.9035 35.1516 25.0278 35.8021 26.6396 36.2968C27.0012 36.4076 27.3373 36.5108 27.6408 36.6043L27.0866 36.9116L27.0829 36.9134Z" fill="#003170"/>
<path d="M44.4784 26.8353C44.4711 26.806 44.4657 26.7756 44.4639 26.7445C44.4639 26.724 44.4639 26.7046 44.4639 26.6862V26.6831V26.6761C44.4657 26.654 44.4693 26.6337 44.4711 26.6152C44.4875 26.6229 44.5038 26.6315 44.5184 26.6413C44.5402 26.6563 44.5602 26.6719 44.5747 26.6862C44.582 26.6951 44.5911 26.7035 44.5965 26.7112C44.5892 26.7255 44.5765 26.7421 44.562 26.7604C44.5511 26.7727 44.5384 26.7851 44.5257 26.7974L44.5238 26.7992C44.5093 26.8117 44.4948 26.8239 44.4784 26.8353Z" fill="#003170"/>
<path d="M44.9765 28.6651C45.0601 28.6131 45.1436 28.5623 45.2236 28.5138C45.0764 29.139 44.9274 29.763 44.7802 30.3864C44.0679 33.3816 43.3592 36.3601 42.7159 39.3518L42.7105 39.3835L42.705 39.4155C42.6832 39.583 42.6269 39.744 42.536 39.8873C42.4579 40.0135 42.3561 40.1234 42.238 40.2112C42.0581 40.2844 41.8637 40.3173 41.6693 40.3076C41.4548 40.2966 41.2459 40.2339 41.0605 40.1245L41.0296 40.1064L40.9987 40.091C39.2288 39.2523 37.5062 38.3454 35.7654 37.4284C34.9567 37.0029 34.1445 36.5752 33.3213 36.1512C34.0772 35.6494 34.815 35.1494 35.5491 34.6521C36.6739 33.8913 37.7878 33.1365 38.9399 32.39C39.9121 31.7644 40.8679 31.1854 41.8346 30.599C42.6051 30.1319 43.3846 29.6604 44.1842 29.1568C44.2387 29.1244 44.3477 29.0558 44.484 28.9707C44.6294 28.8796 44.8057 28.7697 44.9765 28.6651ZM35.7145 29.1687C36.3923 29.5212 37.0628 29.8737 37.6007 30.1585C37.0446 30.5521 36.3668 31.0287 35.6654 31.5215C35.2875 31.7878 34.9022 32.0587 34.5261 32.3238C33.7447 32.8731 33.0051 33.3966 32.4473 33.7962C32.5963 32.3397 32.7544 30.8816 32.9125 29.4494C32.9252 29.3196 32.9397 29.1901 32.9542 29.0607V29.058C32.9688 28.9279 32.9851 28.7796 33.0033 28.6234C33.0324 28.3625 33.0651 28.0801 33.0887 27.8252C33.2613 27.9098 33.4685 28.0137 33.7011 28.1315C34.2753 28.4225 34.9967 28.7949 35.7145 29.1687Z" fill="#003170"/>
<path d="M37.7094 22.1457C37.1224 21.9308 36.5282 21.727 35.9268 21.5227L37.8547 19.7263L37.8729 19.7102L37.8893 19.6934C38.0474 19.5273 38.2545 19.4177 38.4798 19.3813C38.707 19.3451 38.9378 19.3839 39.1395 19.4918L39.1685 19.5074L39.1994 19.5205C39.6246 19.7042 40.0499 19.8809 40.4696 20.0563C41.6907 20.5649 42.8882 21.0635 44.0294 21.693C44.9543 22.2039 45.8447 22.7723 46.766 23.3602C46.8314 23.4021 46.8987 23.4441 46.9641 23.4862C47.4311 23.7897 47.8945 24.1281 48.3542 24.4839L48.3742 24.4989C48.6159 24.6738 48.8466 24.8642 49.0647 25.0693C48.8139 25.1285 48.5614 25.1783 48.3088 25.2183L48.2924 25.2207L48.2761 25.224C47.4856 25.3826 46.6661 25.3274 45.9029 25.0641L45.8829 25.0574C45.832 25.0413 45.6594 24.9908 45.4304 24.9244C45.2305 24.8657 44.987 24.7947 44.7472 24.7237C44.2002 24.562 43.695 24.4085 43.5642 24.3577L43.5569 24.3548L37.7166 22.1485L37.7094 22.1457Z" fill="#003170"/>
<path d="M16.2256 30.9143L31.0934 24.2823L29.9705 34.8165L16.2256 30.9143Z" fill="#003170"/>
<path d="M29.545 22.3726C27.0773 23.465 24.6387 24.5618 22.2147 25.6523L22.142 25.6845C19.4072 26.9141 16.6906 28.1357 13.9648 29.3364C14.1502 28.6513 14.3355 27.9659 14.5209 27.2803C15.0987 25.1391 15.6766 22.9973 16.2708 20.8641L16.278 20.8373L16.2835 20.81C16.3689 20.3922 16.5434 19.998 16.7923 19.6539C17.2048 19.2323 17.7336 18.9449 18.3097 18.8296C18.8966 18.7124 19.5053 18.7791 20.0541 19.0208C21.804 19.8833 23.6211 20.5054 25.4165 21.0707C25.8762 21.2152 26.3323 21.3557 26.7866 21.4954C27.717 21.7817 28.6365 22.0645 29.545 22.3726Z" fill="#003170"/>
<path d="M55.7377 39.6537C55.1198 39.4748 54.4965 39.3266 53.8642 39.2099L53.8533 39.2079C52.465 38.973 51.0585 38.8698 49.6502 38.8991C48.2601 38.9291 46.8736 39.0383 45.4962 39.226L45.4926 39.2265C45.3727 39.2435 45.2527 39.2626 45.1328 39.2838C45.1746 39.1137 45.2164 38.9443 45.2564 38.7754C45.3654 38.3359 45.4708 37.9012 45.5707 37.4704C45.7107 36.8708 45.8506 36.2715 45.9905 35.673C46.5375 33.3171 47.0844 30.9721 47.6514 28.6545L47.6532 28.6431C47.6568 28.6318 47.6605 28.6171 47.6659 28.5994C47.6877 28.6155 47.7095 28.6334 47.7295 28.6532L47.7331 28.657C50.3753 31.2659 53.0047 33.9078 55.6177 36.5825C55.6868 36.6654 55.7286 36.7674 55.7377 36.8748V36.8781V36.8858V36.8933V36.901V36.9087V36.9163V36.924V36.9317V36.9396V36.9474V36.9551V36.963V36.971V36.9789V36.9868V36.9948V37.0029V37.0109V37.019V37.027V37.0351V37.0433V37.0513V37.0596V37.0678V37.076V37.0843V37.0927V37.1009V37.1093V37.1178V37.1262V37.1346V37.143V37.1514V37.16V37.1684V37.2374V37.2462V37.2549V37.2637V37.2725V37.2813V37.2903V37.299V37.308V37.3168V37.3257V37.3347V37.3437V37.3526V37.3616V37.3707V37.3797V37.3888V37.3978V37.407V37.4161V37.4252V37.4344V37.4435V37.4529V37.462V37.4712V37.4805V37.4898V37.499V37.5083V37.5176V37.527V37.5363V37.5458V37.5551V37.5645V37.574V37.5835V37.5928V37.6023V37.6118V37.6213V37.6309V37.6404V37.6499V37.6594V37.6691V37.6786V37.6883V37.6978V37.7075V37.717V37.7267V37.7364V37.7461V37.7558V37.7655V37.7752V37.7849V37.7948V37.8045V37.8142V37.824V37.8337V37.8436V37.8535V37.8632V37.8731V37.8829V37.8928V37.9027V37.9126V37.9224V37.9323V37.9422V37.9521V37.962V37.972V37.9819V37.9918V38.0018V38.0117V38.0218V38.0317V38.0417V38.0516V38.0617V38.0717V38.0818V38.0917V38.1017V38.1118V38.1218V38.1319V38.142V38.152V38.1621V38.1721V38.1822V38.1923V38.2023V38.2124V38.2224V38.2325V38.2428V38.2528V38.2629V38.2729V38.2832V38.2932V38.3033V38.3135V38.3236V38.3337V38.3439V38.354V38.3642V38.3743V38.3843V38.3946V38.4046V38.4149V38.4249V38.4352V38.4452V38.4553V38.4656V38.4756V38.4859V38.4959V38.5062V38.5162V38.5263V38.5365V38.5466V38.5568V38.5669V38.577V38.5872V38.5973V38.6075V38.6176V38.6276V38.6379V38.6479V38.658V38.6681V38.6783V38.6884V38.6984V38.7085V38.7185V38.7286V38.7387V38.7489V38.759V38.769V38.7791V38.789V38.799V38.8091V38.8192V38.8292V38.8393V38.8492V38.8592V38.8693V38.8792V38.8892V38.8993V38.9092V38.9192V38.9291V38.939V38.949V38.9589V38.9688V38.9787V38.9885V38.9984V39.0085V39.0182V39.0281V39.0379V39.0478V39.0577V39.0674V39.0773V39.0871V39.0968V39.1067V39.1164V39.1261V39.136V39.1457V39.1554V39.1651V39.1748V39.1845V39.1942V39.2038V39.2134V39.2231V39.2326V39.2423V39.2518V39.2615V39.271V39.2805V39.29V39.2995V39.309V39.3185V39.3281V39.3374V39.3469V39.3562V39.3657V39.3751V39.3844V39.3937V39.4032V39.4124V39.4217V39.431V39.4404V39.4495V39.4588V39.468V39.4771V39.4865V39.4956V39.5048V39.5139V39.5229V39.532V39.5412V39.5501V39.5591V39.5682V39.5772V39.5862V39.5951V39.6039V39.6129V39.6218V39.6306V39.6394V39.6482V39.6537Z" fill="#003170"/>
<path d="M29.3669 50.0929L20.2993 43.3912L29.8684 38.0878C29.9084 38.8932 29.9465 39.7771 29.9865 40.6879C30.0955 43.2171 30.2136 45.9546 30.4281 47.8025C30.4899 48.6024 30.2863 49.4004 29.8502 50.071C29.7884 50.1487 29.7248 50.2248 29.6594 50.2991C29.5613 50.2327 29.4632 50.1633 29.3669 50.0929V50.0929Z" fill="#003170"/>
<path d="M58.0853 36.0571L58.0871 35.7259L57.8563 35.4912L49.7119 27.2507C50.7949 27.0279 51.9143 27.0579 52.9828 27.3388C54.7163 27.9195 56.2954 28.893 57.5947 30.1848C58.9012 31.4803 59.8915 33.061 60.4912 34.8041C61.2689 37.2341 61.2689 39.8494 60.4894 42.2792C60.4294 42.4627 60.3186 42.7581 60.2023 43.0625C59.8225 42.6974 59.2992 42.1799 58.8376 41.7176C58.5596 41.4399 58.3052 41.1849 58.1217 40.9995L58.0544 40.9321L58.0853 36.0571Z" fill="#003170"/>
<path d="M19.5982 54.1996L19.62 54.2446L19.6472 54.2867L25.2531 63.0588L15.2915 56.8175L16.3291 51.8265C16.4599 51.9158 16.589 52.0045 16.7198 52.0929C17.6429 52.7214 18.5388 53.3307 19.4292 53.9507C19.4982 54.0246 19.5545 54.1084 19.5982 54.1996Z" fill="#003170"/>
<path d="M32.6397 46.284C32.5961 45.4171 32.5525 44.5323 32.5089 43.6424C32.418 41.846 32.329 40.0287 32.2363 38.2932L38.8017 41.7163C38.6109 41.8409 38.4164 41.9662 38.2202 42.0923C37.5151 42.5474 36.7919 43.0135 36.0923 43.4995L36.0887 43.5019L35.2546 44.0865L35.2437 44.0944L35.2328 44.1026C34.5641 44.608 33.899 45.1411 33.263 45.7122C33.054 45.8997 32.8469 46.0919 32.6397 46.284Z" fill="#003170"/>
<path d="M9.02246 43.5138L16.0475 44.5435L15.1826 47.7315L9.02246 43.5138Z" fill="#003170"/>
<path d="M25.2186 17.6817L25.2259 17.681C26.2471 17.5743 27.2775 17.5557 28.3496 17.5365C28.4513 17.5346 28.5549 17.5328 28.6567 17.5308C28.822 17.5323 28.9819 17.5855 29.1146 17.6833C29.2491 17.7823 29.349 17.9217 29.3999 18.0816L29.4217 18.1493L29.4544 18.212C29.5998 18.4855 29.7997 18.8576 30.0141 19.2584C30.1794 19.5687 30.3557 19.8963 30.5229 20.2087C29.6198 19.9164 28.484 19.5454 27.3483 19.1717C26.1436 18.7756 24.9442 18.3768 24.0284 18.0658C23.8649 18.0102 23.7104 17.9576 23.5669 17.9083C23.7613 17.8624 23.9594 17.8282 24.1592 17.8061C24.3755 17.8026 24.579 17.7746 24.7444 17.7492C24.7898 17.7423 24.8334 17.7355 24.8734 17.7291C25.0024 17.7086 25.1078 17.6921 25.2186 17.6817ZM22.5093 17.5269C22.5093 17.5269 22.5129 17.5284 22.5184 17.5313C22.5111 17.5284 22.5093 17.5269 22.5093 17.5269Z" fill="#003170"/>
<path d="M35.2818 18.3022C35.4126 18.3288 35.5598 18.3586 35.7034 18.3932C34.6931 19.3321 33.9698 19.9835 33.4847 20.4109C33.461 20.4308 33.4392 20.4504 33.4174 20.4694C33.263 20.1846 33.1121 19.9043 32.9613 19.6266C32.627 19.0103 32.2999 18.4067 31.9746 17.7933C32.1581 17.7933 32.3417 17.8138 32.5198 17.8543L32.5434 17.8596L32.567 17.8634L35.2818 18.3022Z" fill="#003170"/>
<path d="M36.0015 23.9997L37.3898 24.5269C36.8937 24.5547 36.394 24.5706 35.8943 24.5776C35.7216 24.5799 35.5163 24.5946 35.3237 24.6081C35.2655 24.6123 35.2074 24.6165 35.1529 24.62C34.8966 24.6368 34.6459 24.6482 34.406 24.6388C33.9317 24.6202 33.661 24.5236 33.5174 24.393C33.4811 24.3337 33.4557 24.269 33.4411 24.2011C33.4229 24.1175 33.4211 24.031 33.4375 23.9468L33.4484 23.8881L33.452 23.8285C33.4593 23.6492 33.472 23.4703 33.4938 23.2923C33.7537 23.2482 34.0281 23.278 34.3442 23.3646C34.5859 23.4308 34.8385 23.5265 35.1183 23.6415C35.1928 23.6719 35.271 23.7048 35.3527 23.7387C35.5599 23.8252 35.7834 23.9185 36.0015 23.9997Z" fill="#003170"/>
</svg>
